<?xml version="1.0" encoding="utf-8"?>
<!-- Generator: Adobe Illustrator 17.0.0, SVG Export Plug-In . SVG Version: 6.00 Build 0)  -->
<!DOCTYPE svg PUBLIC "-//W3C//DTD SVG 1.1//EN" "http://www.w3.org/Graphics/SVG/1.1/DTD/svg11.dtd">
<svg version="1.1" id="Layer_1" xmlns="http://www.w3.org/2000/svg" xmlns:xlink="http://www.w3.org/1999/xlink" x="0px" y="0px"
	 width="50px" height="50px" viewBox="0 0 50 50" enable-background="new 0 0 50 50" xml:space="preserve">
<g>
	<path fill="white" d="M41.922,25.566c0,9.586-7.771,17.356-17.356,17.356S7.209,35.151,7.209,25.566S14.98,8.209,24.566,8.209
		S41.922,15.98,41.922,25.566L41.922,25.566z"/>
	<g>
		<g>
			<defs>
				<rect id="SVGID_1_" x="5.5" y="6.5" width="38" height="38"/>
			</defs>
			<clipPath id="SVGID_2_">
				<use xlink:href="#SVGID_1_"  overflow="visible"/>
			</clipPath>
			<path clip-path="url(#SVGID_2_)" fill="##981c2c" d="M13.138,10.471c-0.656,0.489-1.296,1.044-1.963,1.703
				c-0.596,0.596-1.151,1.234-1.695,1.953c-0.526,0.694-0.391,1.684,0.303,2.21c0.285,0.216,0.62,0.322,0.953,0.322
				c0.477,0,0.948-0.215,1.258-0.624c0.458-0.603,0.92-1.136,1.406-1.622c0.556-0.549,1.088-1.012,1.626-1.413
				c0.699-0.522,0.842-1.51,0.321-2.209C14.824,10.093,13.835,9.949,13.138,10.471L13.138,10.471z"/>
		</g>
		<g>
			<defs>
				<rect id="SVGID_3_" x="5.5" y="6.5" width="38" height="38"/>
			</defs>
			<clipPath id="SVGID_4_">
				<use xlink:href="#SVGID_3_"  overflow="visible"/>
			</clipPath>
			<path clip-path="url(#SVGID_4_)" fill="##981c2c" d="M18.724,7.552C17.895,7.821,17.44,8.71,17.708,9.54
				c0.268,0.83,1.157,1.282,1.986,1.016c5.674-1.834,11.816-0.358,16.031,3.851c6.15,6.151,6.15,16.163,0,22.32
				c-6.151,6.151-16.163,6.15-22.319,0.001C9.197,32.51,7.72,26.368,9.554,20.695c0.268-0.83-0.187-1.719-1.016-1.987
				c-0.829-0.265-1.719,0.187-1.987,1.016c-2.199,6.804-0.428,14.175,4.622,19.234c3.695,3.689,8.544,5.535,13.394,5.535
				s9.698-1.845,13.389-5.536c7.379-7.388,7.379-19.402-0.002-26.782C32.898,7.123,25.529,5.353,18.724,7.552L18.724,7.552z"/>
		</g>
	</g>
	<path fill="##981c2c" d="M22.199,33.455c0,0.871,0.707,1.578,1.578,1.578h8.678c0.871,0,1.578-0.707,1.578-1.578v-8.678
		c0-0.871-0.707-1.578-1.578-1.578c-0.871,0-1.578,0.707-1.578,1.578v4.869L17.792,16.561c-0.615-0.616-1.616-0.616-2.231,0
		c-0.616,0.616-0.616,1.615,0,2.231l13.085,13.085h-4.869C22.906,31.877,22.199,32.584,22.199,33.455L22.199,33.455z"/>
</g>
</svg>
